<svg xmlns="http://www.w3.org/2000/svg" width="1440" height="1440" fill="none" viewBox="0 0 1440 1440"><rect width="1018.23" height="1018.23" y="720" fill="#3F69FF" rx="77.254" transform="rotate(-45 0 720)"/><path fill="#DDE2E5" fill-rule="evenodd" d="M1074.76 817.935C1074.76 819.855 1073.13 821.412 1071.11 821.412C1069.09 821.412 1067.46 819.855 1067.46 817.935C1067.46 816.015 1069.09 814.458 1071.11 814.458C1073.13 814.458 1074.76 816.015 1074.76 817.935" clip-rule="evenodd"/><path fill="#DDE2E5" fill-rule="evenodd" d="M1111.29 817.935C1111.29 819.855 1109.66 821.412 1107.64 821.412C1105.62 821.412 1103.99 819.855 1103.99 817.935C1103.99 816.015 1105.62 814.458 1107.64 814.458C1109.66 814.458 1111.29 816.015 1111.29 817.935" clip-rule="evenodd"/><path fill="#DDE2E5" fill-rule="evenodd" d="M1147.82 817.935C1147.82 819.855 1146.18 821.412 1144.17 821.412C1142.15 821.412 1140.51 819.855 1140.51 817.935C1140.51 816.015 1142.15 814.458 1144.17 814.458C1146.18 814.458 1147.82 816.015 1147.82 817.935" clip-rule="evenodd"/><path fill="#DDE2E5" fill-rule="evenodd" d="M1184.35 817.935C1184.35 819.855 1182.71 821.412 1180.69 821.412C1178.68 821.412 1177.04 819.855 1177.04 817.935C1177.04 816.015 1178.68 814.458 1180.69 814.458C1182.71 814.458 1184.35 816.015 1184.35 817.935" clip-rule="evenodd"/><path fill="#DDE2E5" fill-rule="evenodd" d="M1220.87 817.935C1220.87 819.855 1219.24 821.412 1217.22 821.412C1215.2 821.412 1213.57 819.855 1213.57 817.935C1213.57 816.015 1215.2 814.458 1217.22 814.458C1219.24 814.458 1220.87 816.015 1220.87 817.935" clip-rule="evenodd"/><path fill="#DDE2E5" fill-rule="evenodd" d="M1257.4 817.935C1257.4 819.855 1255.76 821.412 1253.75 821.412C1251.73 821.412 1250.09 819.855 1250.09 817.935C1250.09 816.015 1251.73 814.458 1253.75 814.458C1255.76 814.458 1257.4 816.015 1257.4 817.935" clip-rule="evenodd"/><path fill="#DDE2E5" fill-rule="evenodd" d="M1293.93 817.935C1293.93 819.855 1292.29 821.412 1290.27 821.412C1288.26 821.412 1286.62 819.855 1286.62 817.935C1286.62 816.015 1288.26 814.458 1290.27 814.458C1292.29 814.458 1293.93 816.015 1293.93 817.935" clip-rule="evenodd"/><path fill="#DDE2E5" fill-rule="evenodd" d="M1330.45 817.935C1330.45 819.855 1328.82 821.412 1326.8 821.412C1324.78 821.412 1323.15 819.855 1323.15 817.935C1323.15 816.015 1324.78 814.458 1326.8 814.458C1328.82 814.458 1330.45 816.015 1330.45 817.935" clip-rule="evenodd"/><path fill="#DDE2E5" fill-rule="evenodd" d="M1074.76 852.704C1074.76 854.624 1073.13 856.181 1071.11 856.181C1069.09 856.181 1067.46 854.624 1067.46 852.704C1067.46 850.784 1069.09 849.227 1071.11 849.227C1073.13 849.227 1074.76 850.784 1074.76 852.704" clip-rule="evenodd"/><path fill="#DDE2E5" fill-rule="evenodd" d="M1111.29 852.704C1111.29 854.624 1109.66 856.181 1107.64 856.181C1105.62 856.181 1103.99 854.624 1103.99 852.704C1103.99 850.784 1105.62 849.227 1107.64 849.227C1109.66 849.227 1111.29 850.784 1111.29 852.704" clip-rule="evenodd"/><path fill="#DDE2E5" fill-rule="evenodd" d="M1147.82 852.704C1147.82 854.624 1146.18 856.181 1144.17 856.181C1142.15 856.181 1140.51 854.624 1140.51 852.704C1140.51 850.784 1142.15 849.227 1144.17 849.227C1146.18 849.227 1147.82 850.784 1147.82 852.704" clip-rule="evenodd"/><path fill="#DDE2E5" fill-rule="evenodd" d="M1184.35 852.704C1184.35 854.624 1182.71 856.181 1180.69 856.181C1178.68 856.181 1177.04 854.624 1177.04 852.704C1177.04 850.784 1178.68 849.227 1180.69 849.227C1182.71 849.227 1184.35 850.784 1184.35 852.704" clip-rule="evenodd"/><path fill="#DDE2E5" fill-rule="evenodd" d="M1220.87 852.704C1220.87 854.624 1219.24 856.181 1217.22 856.181C1215.2 856.181 1213.57 854.624 1213.57 852.704C1213.57 850.784 1215.2 849.227 1217.22 849.227C1219.24 849.227 1220.87 850.784 1220.87 852.704" clip-rule="evenodd"/><path fill="#DDE2E5" fill-rule="evenodd" d="M1257.4 852.704C1257.4 854.624 1255.76 856.181 1253.75 856.181C1251.73 856.181 1250.09 854.624 1250.09 852.704C1250.09 850.784 1251.73 849.227 1253.75 849.227C1255.76 849.227 1257.4 850.784 1257.4 852.704" clip-rule="evenodd"/><path fill="#DDE2E5" fill-rule="evenodd" d="M1293.93 852.704C1293.93 854.624 1292.29 856.181 1290.27 856.181C1288.26 856.181 1286.62 854.624 1286.62 852.704C1286.62 850.784 1288.26 849.227 1290.27 849.227C1292.29 849.227 1293.93 850.784 1293.93 852.704" clip-rule="evenodd"/><path fill="#DDE2E5" fill-rule="evenodd" d="M1330.45 852.704C1330.45 854.624 1328.82 856.181 1326.8 856.181C1324.78 856.181 1323.15 854.624 1323.15 852.704C1323.15 850.784 1324.78 849.227 1326.8 849.227C1328.82 849.227 1330.45 850.784 1330.45 852.704" clip-rule="evenodd"/><path fill="#DDE2E5" fill-rule="evenodd" d="M1074.76 887.473C1074.76 889.394 1073.13 890.95 1071.11 890.95C1069.09 890.95 1067.46 889.394 1067.46 887.473C1067.46 885.553 1069.09 883.997 1071.11 883.997C1073.13 883.997 1074.76 885.553 1074.76 887.473" clip-rule="evenodd"/><path fill="#DDE2E5" fill-rule="evenodd" d="M1111.29 887.473C1111.29 889.394 1109.66 890.95 1107.64 890.95C1105.62 890.95 1103.99 889.394 1103.99 887.473C1103.99 885.553 1105.62 883.997 1107.64 883.997C1109.66 883.997 1111.29 885.553 1111.29 887.473" clip-rule="evenodd"/><path fill="#DDE2E5" fill-rule="evenodd" d="M1147.82 887.473C1147.82 889.394 1146.18 890.95 1144.17 890.95C1142.15 890.95 1140.51 889.394 1140.51 887.473C1140.51 885.553 1142.15 883.997 1144.17 883.997C1146.18 883.997 1147.82 885.553 1147.82 887.473" clip-rule="evenodd"/><path fill="#DDE2E5" fill-rule="evenodd" d="M1184.35 887.473C1184.35 889.394 1182.71 890.95 1180.69 890.95C1178.68 890.95 1177.04 889.394 1177.04 887.473C1177.04 885.553 1178.68 883.997 1180.69 883.997C1182.71 883.997 1184.35 885.553 1184.35 887.473" clip-rule="evenodd"/><path fill="#DDE2E5" fill-rule="evenodd" d="M1220.87 887.473C1220.87 889.394 1219.24 890.95 1217.22 890.95C1215.2 890.95 1213.57 889.394 1213.57 887.473C1213.57 885.553 1215.2 883.997 1217.22 883.997C1219.24 883.997 1220.87 885.553 1220.87 887.473" clip-rule="evenodd"/><path fill="#DDE2E5" fill-rule="evenodd" d="M1257.4 887.473C1257.4 889.394 1255.76 890.95 1253.75 890.95C1251.73 890.95 1250.09 889.394 1250.09 887.473C1250.09 885.553 1251.73 883.997 1253.75 883.997C1255.76 883.997 1257.4 885.553 1257.4 887.473" clip-rule="evenodd"/><path fill="#DDE2E5" fill-rule="evenodd" d="M1293.93 887.473C1293.93 889.394 1292.29 890.95 1290.27 890.95C1288.26 890.95 1286.62 889.394 1286.62 887.473C1286.62 885.553 1288.26 883.997 1290.27 883.997C1292.29 883.997 1293.93 885.553 1293.93 887.473" clip-rule="evenodd"/><path fill="#DDE2E5" fill-rule="evenodd" d="M1330.45 887.473C1330.45 889.394 1328.82 890.95 1326.8 890.95C1324.78 890.95 1323.15 889.394 1323.15 887.473C1323.15 885.553 1324.78 883.997 1326.8 883.997C1328.82 883.997 1330.45 885.553 1330.45 887.473" clip-rule="evenodd"/><path fill="#DDE2E5" fill-rule="evenodd" d="M1074.76 922.243C1074.76 924.163 1073.13 925.72 1071.11 925.72C1069.09 925.72 1067.46 924.163 1067.46 922.243C1067.46 920.323 1069.09 918.766 1071.11 918.766C1073.13 918.766 1074.76 920.323 1074.76 922.243" clip-rule="evenodd"/><path fill="#DDE2E5" fill-rule="evenodd" d="M1111.29 922.243C1111.29 924.163 1109.66 925.72 1107.64 925.72C1105.62 925.72 1103.99 924.163 1103.99 922.243C1103.99 920.323 1105.62 918.766 1107.64 918.766C1109.66 918.766 1111.29 920.323 1111.29 922.243" clip-rule="evenodd"/><path fill="#DDE2E5" fill-rule="evenodd" d="M1147.82 922.243C1147.82 924.163 1146.18 925.72 1144.17 925.72C1142.15 925.72 1140.51 924.163 1140.51 922.243C1140.51 920.323 1142.15 918.766 1144.17 918.766C1146.18 918.766 1147.82 920.323 1147.82 922.243" clip-rule="evenodd"/><path fill="#DDE2E5" fill-rule="evenodd" d="M1184.35 922.243C1184.35 924.163 1182.71 925.72 1180.69 925.72C1178.68 925.72 1177.04 924.163 1177.04 922.243C1177.04 920.323 1178.68 918.766 1180.69 918.766C1182.71 918.766 1184.35 920.323 1184.35 922.243" clip-rule="evenodd"/><path fill="#DDE2E5" fill-rule="evenodd" d="M1220.87 922.243C1220.87 924.163 1219.24 925.72 1217.22 925.72C1215.2 925.72 1213.57 924.163 1213.57 922.243C1213.57 920.323 1215.2 918.766 1217.22 918.766C1219.24 918.766 1220.87 920.323 1220.87 922.243" clip-rule="evenodd"/><path fill="#DDE2E5" fill-rule="evenodd" d="M1257.4 922.243C1257.4 924.163 1255.76 925.72 1253.75 925.72C1251.73 925.72 1250.09 924.163 1250.09 922.243C1250.09 920.323 1251.73 918.766 1253.75 918.766C1255.76 918.766 1257.4 920.323 1257.4 922.243" clip-rule="evenodd"/><path fill="#DDE2E5" fill-rule="evenodd" d="M1293.93 922.243C1293.93 924.163 1292.29 925.72 1290.27 925.72C1288.26 925.72 1286.62 924.163 1286.62 922.243C1286.62 920.323 1288.26 918.766 1290.27 918.766C1292.29 918.766 1293.93 920.323 1293.93 922.243" clip-rule="evenodd"/><path fill="#DDE2E5" fill-rule="evenodd" d="M1330.45 922.243C1330.45 924.163 1328.82 925.72 1326.8 925.72C1324.78 925.72 1323.15 924.163 1323.15 922.243C1323.15 920.323 1324.78 918.766 1326.8 918.766C1328.82 918.766 1330.45 920.323 1330.45 922.243" clip-rule="evenodd"/><path fill="#DDE2E5" fill-rule="evenodd" d="M1074.76 957.012C1074.76 958.932 1073.13 960.489 1071.11 960.489C1069.09 960.489 1067.46 958.932 1067.46 957.012C1067.46 955.092 1069.09 953.535 1071.11 953.535C1073.13 953.535 1074.76 955.092 1074.76 957.012" clip-rule="evenodd"/><path fill="#DDE2E5" fill-rule="evenodd" d="M1111.29 957.012C1111.29 958.932 1109.66 960.489 1107.64 960.489C1105.62 960.489 1103.99 958.932 1103.99 957.012C1103.99 955.092 1105.62 953.535 1107.64 953.535C1109.66 953.535 1111.29 955.092 1111.29 957.012" clip-rule="evenodd"/><path fill="#DDE2E5" fill-rule="evenodd" d="M1147.82 957.012C1147.82 958.932 1146.18 960.489 1144.17 960.489C1142.15 960.489 1140.51 958.932 1140.51 957.012C1140.51 955.092 1142.15 953.535 1144.17 953.535C1146.18 953.535 1147.82 955.092 1147.82 957.012" clip-rule="evenodd"/><path fill="#DDE2E5" fill-rule="evenodd" d="M1184.35 957.012C1184.35 958.932 1182.71 960.489 1180.69 960.489C1178.68 960.489 1177.04 958.932 1177.04 957.012C1177.04 955.092 1178.68 953.535 1180.69 953.535C1182.71 953.535 1184.35 955.092 1184.35 957.012" clip-rule="evenodd"/><path fill="#DDE2E5" fill-rule="evenodd" d="M1220.87 957.012C1220.87 958.932 1219.24 960.489 1217.22 960.489C1215.2 960.489 1213.57 958.932 1213.57 957.012C1213.57 955.092 1215.2 953.535 1217.22 953.535C1219.24 953.535 1220.87 955.092 1220.87 957.012" clip-rule="evenodd"/><path fill="#DDE2E5" fill-rule="evenodd" d="M1257.4 957.012C1257.4 958.932 1255.76 960.489 1253.75 960.489C1251.73 960.489 1250.09 958.932 1250.09 957.012C1250.09 955.092 1251.73 953.535 1253.75 953.535C1255.76 953.535 1257.4 955.092 1257.4 957.012" clip-rule="evenodd"/><path fill="#DDE2E5" fill-rule="evenodd" d="M1293.93 957.012C1293.93 958.932 1292.29 960.489 1290.27 960.489C1288.26 960.489 1286.62 958.932 1286.62 957.012C1286.62 955.092 1288.26 953.535 1290.27 953.535C1292.29 953.535 1293.93 955.092 1293.93 957.012" clip-rule="evenodd"/><path fill="#DDE2E5" fill-rule="evenodd" d="M1330.45 957.012C1330.45 958.932 1328.82 960.489 1326.8 960.489C1324.78 960.489 1323.15 958.932 1323.15 957.012C1323.15 955.092 1324.78 953.535 1326.8 953.535C1328.82 953.535 1330.45 955.092 1330.45 957.012" clip-rule="evenodd"/><path fill="#DDE2E5" fill-rule="evenodd" d="M1074.76 991.781C1074.76 993.702 1073.13 995.258 1071.11 995.258C1069.09 995.258 1067.46 993.702 1067.46 991.781C1067.46 989.861 1069.09 988.304 1071.11 988.304C1073.13 988.304 1074.76 989.861 1074.76 991.781" clip-rule="evenodd"/><path fill="#DDE2E5" fill-rule="evenodd" d="M1111.29 991.781C1111.29 993.702 1109.66 995.258 1107.64 995.258C1105.62 995.258 1103.99 993.702 1103.99 991.781C1103.99 989.861 1105.62 988.304 1107.64 988.304C1109.66 988.304 1111.29 989.861 1111.29 991.781" clip-rule="evenodd"/><path fill="#DDE2E5" fill-rule="evenodd" d="M1147.82 991.781C1147.82 993.702 1146.18 995.258 1144.17 995.258C1142.15 995.258 1140.51 993.702 1140.51 991.781C1140.51 989.861 1142.15 988.304 1144.17 988.304C1146.18 988.304 1147.82 989.861 1147.82 991.781" clip-rule="evenodd"/><path fill="#DDE2E5" fill-rule="evenodd" d="M1184.35 991.781C1184.35 993.702 1182.71 995.258 1180.69 995.258C1178.68 995.258 1177.04 993.702 1177.04 991.781C1177.04 989.861 1178.68 988.304 1180.69 988.304C1182.71 988.304 1184.35 989.861 1184.35 991.781" clip-rule="evenodd"/><path fill="#DDE2E5" fill-rule="evenodd" d="M1220.87 991.781C1220.87 993.702 1219.24 995.258 1217.22 995.258C1215.2 995.258 1213.57 993.702 1213.57 991.781C1213.57 989.861 1215.2 988.304 1217.22 988.304C1219.24 988.304 1220.87 989.861 1220.87 991.781" clip-rule="evenodd"/><path fill="#DDE2E5" fill-rule="evenodd" d="M1257.4 991.781C1257.4 993.702 1255.76 995.258 1253.75 995.258C1251.73 995.258 1250.09 993.702 1250.09 991.781C1250.09 989.861 1251.73 988.304 1253.75 988.304C1255.76 988.304 1257.4 989.861 1257.4 991.781" clip-rule="evenodd"/><path fill="#DDE2E5" fill-rule="evenodd" d="M1293.93 991.781C1293.93 993.702 1292.29 995.258 1290.27 995.258C1288.26 995.258 1286.62 993.702 1286.62 991.781C1286.62 989.861 1288.26 988.304 1290.27 988.304C1292.29 988.304 1293.93 989.861 1293.93 991.781" clip-rule="evenodd"/><path fill="#DDE2E5" fill-rule="evenodd" d="M1330.45 991.781C1330.45 993.702 1328.82 995.258 1326.8 995.258C1324.78 995.258 1323.15 993.702 1323.15 991.781C1323.15 989.861 1324.78 988.304 1326.8 988.304C1328.82 988.304 1330.45 989.861 1330.45 991.781" clip-rule="evenodd"/><path fill="#DDE2E5" fill-rule="evenodd" d="M1074.76 1026.55C1074.76 1028.47 1073.13 1030.03 1071.11 1030.03C1069.09 1030.03 1067.46 1028.47 1067.46 1026.55C1067.46 1024.63 1069.09 1023.07 1071.11 1023.07C1073.13 1023.07 1074.76 1024.63 1074.76 1026.55" clip-rule="evenodd"/><path fill="#DDE2E5" fill-rule="evenodd" d="M1111.29 1026.55C1111.29 1028.47 1109.66 1030.03 1107.64 1030.03C1105.62 1030.03 1103.99 1028.47 1103.99 1026.55C1103.99 1024.63 1105.62 1023.07 1107.64 1023.07C1109.66 1023.07 1111.29 1024.63 1111.29 1026.55" clip-rule="evenodd"/><path fill="#DDE2E5" fill-rule="evenodd" d="M1147.82 1026.55C1147.82 1028.47 1146.18 1030.03 1144.17 1030.03C1142.15 1030.03 1140.51 1028.47 1140.51 1026.55C1140.51 1024.63 1142.15 1023.07 1144.17 1023.07C1146.18 1023.07 1147.82 1024.63 1147.82 1026.55" clip-rule="evenodd"/><path fill="#DDE2E5" fill-rule="evenodd" d="M1184.35 1026.55C1184.35 1028.47 1182.71 1030.03 1180.69 1030.03C1178.68 1030.03 1177.04 1028.47 1177.04 1026.55C1177.04 1024.63 1178.68 1023.07 1180.69 1023.07C1182.71 1023.07 1184.35 1024.63 1184.35 1026.55" clip-rule="evenodd"/><path fill="#DDE2E5" fill-rule="evenodd" d="M1220.87 1026.55C1220.87 1028.47 1219.24 1030.03 1217.22 1030.03C1215.2 1030.03 1213.57 1028.47 1213.57 1026.55C1213.57 1024.63 1215.2 1023.07 1217.22 1023.07C1219.24 1023.07 1220.87 1024.63 1220.87 1026.55" clip-rule="evenodd"/><path fill="#DDE2E5" fill-rule="evenodd" d="M1257.4 1026.55C1257.4 1028.47 1255.76 1030.03 1253.75 1030.03C1251.73 1030.03 1250.09 1028.47 1250.09 1026.55C1250.09 1024.63 1251.73 1023.07 1253.75 1023.07C1255.76 1023.07 1257.4 1024.63 1257.4 1026.55" clip-rule="evenodd"/><path fill="#DDE2E5" fill-rule="evenodd" d="M1293.93 1026.55C1293.93 1028.47 1292.29 1030.03 1290.27 1030.03C1288.26 1030.03 1286.62 1028.47 1286.62 1026.55C1286.62 1024.63 1288.26 1023.07 1290.27 1023.07C1292.29 1023.07 1293.93 1024.63 1293.93 1026.55" clip-rule="evenodd"/><path fill="#DDE2E5" fill-rule="evenodd" d="M1330.45 1026.55C1330.45 1028.47 1328.82 1030.03 1326.8 1030.03C1324.78 1030.03 1323.15 1028.47 1323.15 1026.55C1323.15 1024.63 1324.78 1023.07 1326.8 1023.07C1328.82 1023.07 1330.45 1024.63 1330.45 1026.55" clip-rule="evenodd"/><path fill="#DDE2E5" fill-rule="evenodd" d="M1074.76 1061.32C1074.76 1063.24 1073.13 1064.8 1071.11 1064.8C1069.09 1064.8 1067.46 1063.24 1067.46 1061.32C1067.46 1059.4 1069.09 1057.84 1071.11 1057.84C1073.13 1057.84 1074.76 1059.4 1074.76 1061.32" clip-rule="evenodd"/><path fill="#DDE2E5" fill-rule="evenodd" d="M1111.29 1061.32C1111.29 1063.24 1109.66 1064.8 1107.64 1064.8C1105.62 1064.8 1103.99 1063.24 1103.99 1061.32C1103.99 1059.4 1105.62 1057.84 1107.64 1057.84C1109.66 1057.84 1111.29 1059.4 1111.29 1061.32" clip-rule="evenodd"/><path fill="#DDE2E5" fill-rule="evenodd" d="M1147.82 1061.32C1147.82 1063.24 1146.18 1064.8 1144.17 1064.8C1142.15 1064.8 1140.51 1063.24 1140.51 1061.32C1140.51 1059.4 1142.15 1057.84 1144.17 1057.84C1146.18 1057.84 1147.82 1059.4 1147.82 1061.32" clip-rule="evenodd"/><path fill="#DDE2E5" fill-rule="evenodd" d="M1184.35 1061.32C1184.35 1063.24 1182.71 1064.8 1180.69 1064.8C1178.68 1064.8 1177.04 1063.24 1177.04 1061.32C1177.04 1059.4 1178.68 1057.84 1180.69 1057.84C1182.71 1057.84 1184.35 1059.4 1184.35 1061.32" clip-rule="evenodd"/><path fill="#DDE2E5" fill-rule="evenodd" d="M1220.87 1061.32C1220.87 1063.24 1219.24 1064.8 1217.22 1064.8C1215.2 1064.8 1213.57 1063.24 1213.57 1061.32C1213.57 1059.4 1215.2 1057.84 1217.22 1057.84C1219.24 1057.84 1220.87 1059.4 1220.87 1061.32" clip-rule="evenodd"/><path fill="#DDE2E5" fill-rule="evenodd" d="M1257.4 1061.32C1257.4 1063.24 1255.76 1064.8 1253.75 1064.8C1251.73 1064.8 1250.09 1063.24 1250.09 1061.32C1250.09 1059.4 1251.73 1057.84 1253.75 1057.84C1255.76 1057.84 1257.4 1059.4 1257.4 1061.32" clip-rule="evenodd"/><path fill="#DDE2E5" fill-rule="evenodd" d="M1293.93 1061.32C1293.93 1063.24 1292.29 1064.8 1290.27 1064.8C1288.26 1064.8 1286.62 1063.24 1286.62 1061.32C1286.62 1059.4 1288.26 1057.84 1290.27 1057.84C1292.29 1057.84 1293.93 1059.4 1293.93 1061.32" clip-rule="evenodd"/><path fill="#DDE2E5" fill-rule="evenodd" d="M1330.45 1061.32C1330.45 1063.24 1328.82 1064.8 1326.8 1064.8C1324.78 1064.8 1323.15 1063.24 1323.15 1061.32C1323.15 1059.4 1324.78 1057.84 1326.8 1057.84C1328.82 1057.84 1330.45 1059.4 1330.45 1061.32" clip-rule="evenodd"/></svg>